<?xml version="1.0" encoding="utf-8"?>
<!-- Generator: Adobe Illustrator 21.0.0, SVG Export Plug-In . SVG Version: 6.00 Build 0)  -->
<svg version="1.1" id="Capa_1" xmlns="http://www.w3.org/2000/svg" xmlns:xlink="http://www.w3.org/1999/xlink" x="0px" y="0px"
	 viewBox="0 0 512 512" style="enable-background:new 0 0 512 512;" xml:space="preserve">
<style type="text/css">
	.st0{stroke:#102A83;stroke-width:2;stroke-miterlimit:10;}
	.st1{fill:#FFFFFF;stroke:#0D1244;stroke-width:2;stroke-miterlimit:10;}
</style>
<g>
	<g>
		<path class="st0" d="M297.9,232.9c-6.4,0-11.2,6.1-9.7,12.3c0.6,2.5,2.3,4.7,4.5,6.1c1.5,1,3.3,1.6,5.2,1.6c3.5,0,6.7-1.8,8.5-4.7
			C310.3,241.8,305.4,232.9,297.9,232.9z"/>
	</g>
</g>
<g>
	<g>
		<path class="st0" d="M219.7,232.1c-4.6,0-8.7,3.3-9.7,7.8c-1.4,6.2,3.5,12.2,9.8,12.2c4.6,0,8.7-3.3,9.8-7.8
			C230.9,238.2,226,232.1,219.7,232.1z"/>
	</g>
</g>
<g>
	<g>
		<path class="st1" d="M256.1,512l-1.4-0.8L34.5,384.1V127.9l1.4-0.8L256.1,0l221.3,127.8v256.3l-1.4,0.8L256.1,512z M40.1,380.9
			l216.1,124.7L472,380.9V131.1L256.1,6.4l-216,124.7V380.9z"/>
	</g>
	<g>
		<path class="st1" d="M325.1,247.9v80.9c0,15.6-5.6,21.1-7,27l-72-5.6c-2.5-0.3-2.5-0.6-5.6-0.8l-102.3-7.5
			c0.8-2.8,7.5-8.6,10-10.8c2.5-2.8,2.8-2.8,3.9-6.7c0.8-2.5,1.7-6.4,2-8.9l0.8-42.3c0-15.9-2-49.2,0.8-62.8
			c1.4-7.5,3.1-9.7,6.1-15.3c15,0,27.5,0.6,42.5,0.6c7.5,0,13.1,0.8,20.9,0.8c6.7,0,14.7-0.8,21.1,0.3l85.1,1.7
			c-5.3,7.8-5.8,7.8-7,21.7L325.1,247.9z M121,155.6L121,155.6z M121,155.6l11.1,0.8v16.1h6.1v-16.4h2.2c4.2,0,5,0.6,8.9,0.6v16.1
			h5.6c0-3.6,0-14.5,0-16.1c3.6,0,8.1-0.3,11.1,0.8v15.6c2.2,0,4.2,0,6.1,0v-15.6c3.9-1.4,7,0,11.4,0v15.3c0.5-0.3,1.1-0.3,1.7-0.3
			l80.9,1.7c6.4,0,9.7,0.8,16.1,0.6c5.6,0,11.1,0.3,16.7,0c5.6,0,9.5,0.8,15.9,0.8c5.6,0,11.1,0,16.7,0l16.1,0.5
			c9.2,0,43.9,0.6,48.9,1.1c5.3,0.8,22-2.8,22,11.4c0,9.2,0.6,29.5-1.7,37.3c-2.8,9.2-19.7,7-27.5,6.1c-2.8-0.3-5.6,0-8.3-0.3
			c-3.3,0-5.6-1.7-5.6,1.4v79H386c0,14.2,0.5,7.8-10.8,24.5l-8.6,11.7c-3.3,4.4-0.6,3.3-13.4,3.3c0-8.3-0.6-5.3,6.1-15.6l5-6.7
			c0.8-2.2,0-0.3,0-6.1h-34.2V314h32.3c1.4,0,2-0.6,2-1.9v-79.5c0-3.6-6.4-1.7-15.3-2.8l-18.4-0.8c-0.3-3.6-1.4-6.1-1.4-10.3
			c0-3.6,2.5-12,5.6-12l11.4,0.8l6.1-14.2c1.9-5-2.5-3.3-16.1-3.3c-7.5,0-12.5-0.6-20-0.6l-40.3-0.8c-7,0.3-12.5-0.6-20-0.6
			c-14.2,0-26.4-0.8-40.9-0.8l-19.5-0.6c-3.6,0-6.9,0-10.6,0c-4.2,0-5.3-0.8-9.4-0.8l-54.8-1.1c-2.8,0.6-4.2,5.3-6.4,9.2
			c-6.1,10.3-5,7.2,16.4,7.2c5.8,0,15.9-1.1,20.9,0.8c-5,3.6-2.8,19.5-2.8,27.8v94.5c-2.5,1.4-4.2,2.8-6.1,4.4
			c-10,8.3-6.1,3.6-16.1,3.3c0-6.4-0.3-4.2,1.7-5.8c0.8-0.8,1.7-1.4,2.2-1.9l11.7-9.2c1.1-0.8,1.7-0.8,1.7-2.5V216h-39.5v-2.8
			c-7.2,0-13.1,0.8-9.5-13.1c1.9-7,8.6-20.6,13.9-25c1.4-1.4,6.1-2,12.2-2.2v-17.3H121z"/>
	</g>
</g>
</svg>
