<?xml version="1.0" encoding="utf-8"?>
<!-- Generator: Adobe Illustrator 21.0.0, SVG Export Plug-In . SVG Version: 6.00 Build 0)  -->
<svg version="1.1" id="Capa_1" xmlns="http://www.w3.org/2000/svg" xmlns:xlink="http://www.w3.org/1999/xlink" x="0px" y="0px"
	 viewBox="0 0 512 512" style="enable-background:new 0 0 512 512;" xml:space="preserve">
<style type="text/css">
	.st0{fill:#FFFFFF;stroke:#0D1244;stroke-width:2;stroke-miterlimit:10;}
</style>
<g>
	<path class="st0" d="M256.6,512.1l-1.4-0.8L34.9,384.2V127.9L256.6,0L478,127.9v256.3l-1.4,0.8L256.6,512.1z M40.5,381l216.1,124.7
		L472.5,381V131.1L256.6,6.4L40.5,131.1V381z"/>
</g>
<g>
	<path class="st0" d="M309.2,268.3L309.2,268.3c-8.6,5-18.1,8.3-29.5,10c-0.8,9.7-4.5,19.5-9.7,29.2
		C288.4,301.7,302.8,290.6,309.2,268.3z M309.2,268.3L309.2,268.3z M310.6,188.8L310.6,188.8z M310.6,188.8H202.4v11.1v7.2V218v13.9
		v77.3h52c7-8.1,11.4-17.3,13.4-27c0.8-3.6,0.3-6.1,0.8-9.2c0.6-3.6,2.8-5.6,7-6.1c3.3-0.3,5.8-0.3,9.2-0.8
		c10.3-2.2,18.6-6.9,25.9-13.3v-20.9V218v-10.8V200L310.6,188.8L310.6,188.8z M178.2,178.2L178.2,178.2z M178.2,178.2h156.6
		c2,0,3.6,1.4,3.6,3.3v3.9c0,1.9-1.7,3.3-3.6,3.3h-13.3v18.4h49v-30.3c0-9.7-8.1-18.1-17.8-18.1H161.5c-10.6,0-19.5,8.9-19.5,19.5
		v28.9h49.5v-18.4h-13.4c-1.9,0-3.6-1.4-3.6-3.3v-3.9C174.6,179.6,176.3,178.2,178.2,178.2z M191.6,316.2L191.6,316.2z M191.6,316.2
		V218h-28.4v134.6H179c1.4,0,2.5,1.1,2.5,2.5v6.1c0,1.4-1.1,2.8-2.5,2.8h-42.3c-1.7,0-2.8-1.4-2.8-2.8v-6.1c0-1.4,1.1-2.5,2.8-2.5
		h15.9V218H139c-4.2,0-7.5-3.6-7.5-7.8v-32c0-16.7,13.4-30,30-30h191.1c15.6,0,28.6,12.8,28.6,28.7v33.4c0,4.2-3.3,7.8-7.5,7.8
		h-13.1v134.6h15.8c1.4,0,2.5,1.1,2.5,2.5v6.1c0,1.4-1.1,2.8-2.5,2.8h-42.3c-1.4,0-2.5-1.4-2.5-2.8v-6.1c0-1.4,1.1-2.5,2.5-2.5H350
		V218h-28.7v38.4c0,1.9,0,3.6,0,5.3v0.8c0,0.3,0,0.5,0,0.8c-1.1,12-6.7,23.9-17,36.4c-16.7,16.7-32.3,19.5-53.1,20.3
		c-2.5,0-5.3,0.3-8.1,0.3H198l0.3-0.8H195C193.2,319.5,191.6,318.1,191.6,316.2z"/>
</g>
</svg>
