<?xml version="1.0" encoding="utf-8"?>
<!-- Generator: Adobe Illustrator 21.0.0, SVG Export Plug-In . SVG Version: 6.00 Build 0)  -->
<svg version="1.1" id="Capa_1" xmlns="http://www.w3.org/2000/svg" xmlns:xlink="http://www.w3.org/1999/xlink" x="0px" y="0px"
	 viewBox="0 0 512 512" style="enable-background:new 0 0 512 512;" xml:space="preserve">
<style type="text/css">
	.st0{fill:#FFFFFF;stroke:#0D1244;stroke-width:2;stroke-miterlimit:10;}
	.st1{fill-rule:evenodd;clip-rule:evenodd;fill:#FFFFFF;stroke:#0D1244;stroke-width:2;stroke-miterlimit:10;}
</style>
<g>
	<g>
		<path class="st0" d="M256.4,512.1l-1.4-0.8L34.7,384.2V127.9L256.4,0l221.4,127.9v256.3l-1.4,0.8L256.4,512.1z M40.3,381
			l216.1,124.7L472.3,381V131.1L256.4,6.4L40.3,131.1V381z"/>
	</g>
	<g>
		<path class="st1" d="M304.5,237.4h15.9l-1.7,175L304.5,237.4z M316.5,82.2L316.5,82.2z M316.5,82.2l0.6,131.6h-18.9l-0.8-72.9
			c0,0,0-0.3,0-0.5c0-2-5.8-3.6-14.7-4.7l-0.3-54.8c5.6,1.1,13.4,1.7,22,1.7C308.7,82.5,312.9,82.5,316.5,82.2z M268.7,226.9
			L268.7,226.9z M268.7,226.9c19.5,5,38.9,5,58.4,0v197c-16.7,6.4-44,7.8-60.4-0.3L268.7,226.9z M284.5,144.8L284.5,144.8z
			 M284.5,144.8v70.1c-4.7,0-19.2,1.4-23.1,3.3c-2.8,1.4-2.5,1.4-2.5,5.3l-0.8,82.1l-12.8-20.3v-70.4c0-2.8,0.3-3.3-1.7-5
			c-2.2-1.7-5.6-2.5-8.1-3.1l0.3-63.4c5.6,1.7,16.4,2.5,28.4,2.5C272,145.9,278.9,145.6,284.5,144.8z M231.7,414.9L231.7,414.9z
			 M231.7,414.9c-5.8,3.6-11.7,3.3-17.8,0l6.7-187.5L231.7,414.9z M237.5,218L237.5,218z M237.5,218l2.2,208.9
			c-24.2,4.5-39.2,2-50.1-3.6l-0.3-205.6c5.8,2.2,14.7,3.3,24.5,3.3C223.3,221,231.7,219.9,237.5,218z M213,146.2L213,146.2z
			 M213,146.2l1.1,58.4c-13.9,1.1-28.9,1.7-31.7,7.5v199.4l-5.3-4.2l0.3-261.2c4.7,0.8,10.8,1.4,17.8,1.4
			C202.2,147.6,208.3,147,213,146.2z M182.4,421L182.4,421z M182.4,421c-8.9-2.8-14.5-6.7-14.5-11.4c0-0.3,0-0.3,0-0.6V141.7
			c0-3.1,12.2-5.6,27.5-5.6c15,0,27.3,2.5,27.3,5.6c0,0.3,0,0.6-0.3,0.8v61.8c2.8,0.3,5.8,0.3,8.6,0.8v-65.4h0.3
			c1.7-2.8,15.6-5,33.1-5c2.8,0,5.8,0,8.4,0V76.9h0.3c0-3.1,14.2-5.6,31.4-5.6c17.3,0,31.4,2.5,31.4,5.6c0,0.3-0.3,0.3-0.3,0.5
			v351.1h-0.3c0,8.1-16.1,14.5-36.4,14.5c-20,0-36.4-6.4-36.4-14.5l-3.6-0.8c-3.3,7-19.2,12-38.1,12c-21.1,0-38.4-6.4-38.4-14.5V421
			z"/>
	</g>
</g>
</svg>
