<svg id="Layer_1" data-name="Layer 1" xmlns="http://www.w3.org/2000/svg" xmlns:xlink="http://www.w3.org/1999/xlink" viewBox="0 0 171 75"><defs><style>.cls-1{fill:url(#linear-gradient);}.cls-2{fill:url(#linear-gradient-2);}.cls-3{fill:url(#linear-gradient-3);}.cls-4{fill:url(#linear-gradient-4);}.cls-5{fill:url(#linear-gradient-5);}.cls-6{fill:url(#linear-gradient-6);}</style><linearGradient id="linear-gradient" x1="21.32" y1="65.87" x2="21.32" y2="7.66" gradientUnits="userSpaceOnUse"><stop offset="0" stop-color="#0d1244"/><stop offset="1" stop-color="#a7cf13"/></linearGradient><linearGradient id="linear-gradient-2" x1="73.44" y1="65.87" x2="73.44" y2="40.9" xlink:href="#linear-gradient"/><linearGradient id="linear-gradient-3" x1="103.04" y1="65.26" x2="103.04" y2="32.11" xlink:href="#linear-gradient"/><linearGradient id="linear-gradient-4" x1="131.18" y1="65.87" x2="131.18" y2="40.9" xlink:href="#linear-gradient"/><linearGradient id="linear-gradient-5" x1="154.07" y1="65.87" x2="154.07" y2="40.9" xlink:href="#linear-gradient"/><linearGradient id="linear-gradient-6" x1="46.26" y1="67.34" x2="46.26" y2="7.66" xlink:href="#linear-gradient"/></defs><title>15</title><path class="cls-1" d="M25.5,51.62l.55-1.4h6.76V41.41l-2.76-.92,2.76-12.36V7.66H16.23L9.82,18.07h12v47.8h11V63.62A16.68,16.68,0,0,1,25.5,51.62Z"/><path class="cls-2" d="M85.81,41.51V65.26h-3V61.18a13.11,13.11,0,0,1-4.31,3.52,12,12,0,0,1-13.84-2.48,12.26,12.26,0,0,1-3.57-8.89,12,12,0,0,1,3.6-8.77,11.75,11.75,0,0,1,8.67-3.64,11.21,11.21,0,0,1,5.29,1.24,12,12,0,0,1,4.16,3.73V41.51ZM73.59,43.85a9.22,9.22,0,0,0-8.14,4.77,9.62,9.62,0,0,0,0,9.59,9.37,9.37,0,0,0,3.45,3.56,9,9,0,0,0,4.65,1.28,9.53,9.53,0,0,0,4.75-1.27,8.84,8.84,0,0,0,3.45-3.42A9.77,9.77,0,0,0,83,53.51a9.45,9.45,0,0,0-2.71-6.89A9,9,0,0,0,73.59,43.85Z"/><path class="cls-3" d="M92.68,41.51h3.06v4.26a12.79,12.79,0,0,1,4.06-3.66,10,10,0,0,1,4.85-1.21,8.41,8.41,0,0,1,4.73,1.35,8.06,8.06,0,0,1,3,3.64,19.29,19.29,0,0,1,1,7.14V65.26h-3.06V53.93a28,28,0,0,0-.34-5.48,6,6,0,0,0-2-3.55A6.15,6.15,0,0,0,104,43.72a7.54,7.54,0,0,0-5,1.83,8.59,8.59,0,0,0-2.89,4.54,31.52,31.52,0,0,0-.44,6.46v8.71H92.68Zm16.72-8.84,1.53,2.12a11.6,11.6,0,0,1-2.65,1.55,6.55,6.55,0,0,1-2.28.4,7.35,7.35,0,0,1-3.23-.81,15.09,15.09,0,0,0-1.81-.81A4.1,4.1,0,0,0,99.82,35a3.88,3.88,0,0,0-1.45.27,10.24,10.24,0,0,0-2,1.23l-1.44-2.23a6.44,6.44,0,0,1,4.91-2.14,8.25,8.25,0,0,1,3.34.9,7.53,7.53,0,0,0,2.93.87A7.38,7.38,0,0,0,109.4,32.67Z"/><path class="cls-4" d="M131.19,40.9a11.77,11.77,0,0,1,9.1,4,12.75,12.75,0,0,1-.19,17.28,12.55,12.55,0,0,1-17.84,0,12.72,12.72,0,0,1-.18-17.25A11.75,11.75,0,0,1,131.19,40.9Zm0,3a8.81,8.81,0,0,0-6.55,2.82,9.41,9.41,0,0,0-2.74,6.81,9.65,9.65,0,0,0,1.25,4.8,8.83,8.83,0,0,0,3.37,3.44,9.59,9.59,0,0,0,9.33,0,8.84,8.84,0,0,0,3.37-3.44,9.65,9.65,0,0,0,1.25-4.8,9.39,9.39,0,0,0-2.75-6.81A8.82,8.82,0,0,0,131.18,43.89Z"/><path class="cls-5" d="M161.16,44.11l-2,2a7.06,7.06,0,0,0-4.79-2.38,3.63,3.63,0,0,0-2.55,1A3,3,0,0,0,150.79,47a3.4,3.4,0,0,0,.87,2.2,12.33,12.33,0,0,0,3.67,2.51,13.72,13.72,0,0,1,4.64,3.4,6.2,6.2,0,0,1,1.2,3.73,6.69,6.69,0,0,1-2.06,5,7,7,0,0,1-5.14,2,9,9,0,0,1-3.92-.89A8.54,8.54,0,0,1,147,62.51l1.92-2.18a6.68,6.68,0,0,0,5,2.64A4.48,4.48,0,0,0,157,61.79,3.65,3.65,0,0,0,158.28,59a3.56,3.56,0,0,0-.85-2.34,13.74,13.74,0,0,0-3.85-2.53,12.31,12.31,0,0,1-4.37-3.28A6.16,6.16,0,0,1,148,47.19a6,6,0,0,1,1.85-4.5,6.44,6.44,0,0,1,4.67-1.79Q157.83,40.9,161.16,44.11Z"/><path class="cls-6" d="M60.08,53.32A13.05,13.05,0,0,1,64,43.84a14.17,14.17,0,0,1,1.88-1.6,18,18,0,0,0-4.72-8.92A17.58,17.58,0,0,0,48,27.92a12.69,12.69,0,0,0-1.82.14,15.63,15.63,0,0,0-1.94.42l2.37-10.57h19V7.66H38.31L31.27,40l9,2a13,13,0,0,1,3.46-2.73,7.72,7.72,0,0,1,3.58-.91A7.61,7.61,0,0,1,53.13,41a9.39,9.39,0,0,1,2.39,6.63A9.37,9.37,0,0,1,53,54.4,8.38,8.38,0,0,1,46.7,57a8.81,8.81,0,0,1-4.85-1.41,10,10,0,0,1-3.54-4.13H26.68A19.49,19.49,0,0,0,46.46,67.34,19.13,19.13,0,0,0,60.57,61.5c.44-.45.86-.91,1.25-1.38A13.48,13.48,0,0,1,60.08,53.32Z"/></svg>