<?xml version="1.0" encoding="utf-8"?>
<!-- Generator: Adobe Illustrator 21.0.0, SVG Export Plug-In . SVG Version: 6.00 Build 0)  -->
<svg version="1.1" id="Layer_1" xmlns="http://www.w3.org/2000/svg" xmlns:xlink="http://www.w3.org/1999/xlink" x="0px" y="0px"
	 viewBox="0 0 171 75" style="enable-background:new 0 0 171 75;" xml:space="preserve">
<style type="text/css">
	.st0{fill:url(#SVGID_1_);}
	.st1{fill:url(#SVGID_2_);}
	.st2{fill:url(#SVGID_3_);}
	.st3{fill:url(#SVGID_4_);}
	.st4{fill:url(#SVGID_5_);}
	.st5{fill:url(#SVGID_6_);}
</style>
<title>15</title>
<linearGradient id="SVGID_1_" gradientUnits="userSpaceOnUse" x1="21.32" y1="10.13" x2="21.32" y2="68.34" gradientTransform="matrix(1 0 0 -1 0 76)">
	<stop  offset="0" style="stop-color:#0D1244"/>
	<stop  offset="1" style="stop-color:#F58634"/>
</linearGradient>
<path class="st0" d="M25.5,51.6l0.5-1.4h6.8v-8.8L30,40.5l2.8-12.4V7.7H16.2L9.8,18.1h12v47.8h11v-2.2
	C28.7,60.9,26.1,56.5,25.5,51.6z"/>
<linearGradient id="SVGID_2_" gradientUnits="userSpaceOnUse" x1="73.4488" y1="10.1122" x2="73.4488" y2="35.0812" gradientTransform="matrix(1 0 0 -1 0 76)">
	<stop  offset="0" style="stop-color:#0D1244"/>
	<stop  offset="1" style="stop-color:#F58634"/>
</linearGradient>
<path class="st1" d="M85.8,41.5v23.8h-3v-4.1c-1.2,1.5-2.6,2.7-4.3,3.5c-4.7,2.2-10.2,1.2-13.8-2.5c-2.3-2.4-3.6-5.6-3.6-8.9
	c-0.1-3.3,1.2-6.5,3.6-8.8c2.3-2.4,5.4-3.7,8.7-3.6c1.8,0,3.7,0.4,5.3,1.2c1.7,0.9,3.1,2.2,4.2,3.7v-4.4H85.8z M73.6,43.8
	c-3.4,0-6.5,1.8-8.1,4.8c-1.7,3-1.7,6.6,0,9.6c0.8,1.5,2,2.7,3.4,3.6c1.4,0.8,3,1.3,4.7,1.3c1.7,0,3.3-0.4,4.8-1.3
	c1.4-0.8,2.6-2,3.4-3.4c0.8-1.5,1.3-3.2,1.3-4.9c0.1-2.6-0.9-5.1-2.7-6.9C78.5,44.8,76.1,43.8,73.6,43.8z"/>
<linearGradient id="SVGID_3_" gradientUnits="userSpaceOnUse" x1="103.0415" y1="10.74" x2="103.0415" y2="43.871" gradientTransform="matrix(1 0 0 -1 0 76)">
	<stop  offset="0" style="stop-color:#0D1244"/>
	<stop  offset="1" style="stop-color:#F58634"/>
</linearGradient>
<path class="st2" d="M92.7,41.5h3.1v4.3c1.1-1.5,2.5-2.7,4.1-3.7c1.5-0.8,3.2-1.2,4.8-1.2c1.7,0,3.3,0.4,4.7,1.3
	c1.3,0.9,2.4,2.2,3,3.6c0.8,2.3,1.1,4.7,1,7.1v12.2h-3.1V53.9c0.1-1.8,0-3.7-0.3-5.5c-0.2-1.4-0.9-2.6-2-3.5c-1.1-0.8-2.6-1.3-4-1.2
	c-1.8,0-3.6,0.6-5,1.8c-1.4,1.2-2.4,2.8-2.9,4.5c-0.4,2.1-0.5,4.3-0.4,6.5v8.7h-3V41.5z M109.4,32.7l1.5,2.1
	c-0.8,0.6-1.7,1.2-2.7,1.5c-0.7,0.3-1.5,0.4-2.3,0.4c-1.1,0-2.2-0.3-3.2-0.8c-0.6-0.3-1.2-0.6-1.8-0.8c-0.4-0.1-0.8-0.1-1.1-0.1
	c-0.5,0-1,0.1-1.4,0.3c-0.7,0.3-1.4,0.7-2,1.2l-1.4-2.2c1.2-1.4,3-2.2,4.9-2.1c1.2,0.1,2.3,0.4,3.3,0.9c0.9,0.5,1.9,0.8,2.9,0.9
	C107.3,33.8,108.4,33.3,109.4,32.7z"/>
<linearGradient id="SVGID_4_" gradientUnits="userSpaceOnUse" x1="131.1841" y1="10.13" x2="131.1841" y2="35.1" gradientTransform="matrix(1 0 0 -1 0 76)">
	<stop  offset="0" style="stop-color:#0D1244"/>
	<stop  offset="1" style="stop-color:#F58634"/>
</linearGradient>
<path class="st3" d="M131.2,40.9c3.5-0.1,6.8,1.4,9.1,4c4.4,4.9,4.4,12.4-0.2,17.3c-4.9,4.9-12.8,5-17.7,0.1c0,0-0.1-0.1-0.1-0.1
	c-4.5-4.8-4.6-12.3-0.2-17.3C124.4,42.3,127.7,40.8,131.2,40.9z M131.2,43.9c-2.5,0-4.9,1-6.6,2.8c-1.8,1.8-2.8,4.3-2.7,6.8
	c0,1.7,0.4,3.3,1.3,4.8c0.8,1.4,1.9,2.6,3.4,3.4c2.9,1.6,6.4,1.6,9.3,0c1.4-0.8,2.6-2,3.4-3.4c0.8-1.5,1.3-3.1,1.3-4.8
	c0-2.5-0.9-5-2.8-6.8C136,44.9,133.7,43.9,131.2,43.9L131.2,43.9z"/>
<linearGradient id="SVGID_5_" gradientUnits="userSpaceOnUse" x1="154.0861" y1="10.13" x2="154.0861" y2="35.0775" gradientTransform="matrix(1 0 0 -1 0 76)">
	<stop  offset="0" style="stop-color:#0D1244"/>
	<stop  offset="1" style="stop-color:#F58634"/>
</linearGradient>
<path class="st4" d="M161.2,44.1l-2,2c-1.2-1.4-2.9-2.2-4.8-2.4c-0.9,0-1.9,0.3-2.6,1c-0.7,0.6-1,1.4-1,2.3c0,0.8,0.3,1.6,0.9,2.2
	c1.1,1.1,2.3,1.9,3.7,2.5c1.8,0.8,3.4,2,4.6,3.4c0.8,1.1,1.2,2.4,1.2,3.7c0,1.9-0.7,3.7-2.1,5c-1.4,1.3-3.2,2.1-5.1,2
	c-1.4,0-2.7-0.3-3.9-0.9c-1.2-0.6-2.2-1.4-3-2.4l1.9-2.2c1.2,1.6,3,2.5,5,2.6c1.1,0,2.2-0.4,3.1-1.2c0.8-0.7,1.3-1.7,1.3-2.8
	c0-0.9-0.3-1.7-0.9-2.3c-1.1-1.1-2.4-1.9-3.9-2.5c-1.7-0.8-3.2-1.9-4.4-3.3c-0.8-1.1-1.2-2.3-1.2-3.7c0-1.7,0.6-3.3,1.9-4.5
	c1.3-1.2,2.9-1.8,4.7-1.8C156.7,40.9,158.9,42,161.2,44.1z"/>
<linearGradient id="SVGID_6_" gradientUnits="userSpaceOnUse" x1="46.28" y1="8.6498" x2="46.28" y2="68.34" gradientTransform="matrix(1 0 0 -1 0 76)">
	<stop  offset="0" style="stop-color:#0D1244"/>
	<stop  offset="1" style="stop-color:#F58634"/>
</linearGradient>
<path class="st5" d="M60.1,53.3c0-3.6,1.4-7,3.9-9.5c0.6-0.6,1.2-1.1,1.9-1.6c-0.7-3.4-2.3-6.5-4.7-8.9c-3.4-3.6-8.2-5.5-13.2-5.4
	c-0.6,0-1.2,0-1.8,0.1c-0.7,0.1-1.3,0.2-1.9,0.4l2.4-10.6h19V7.7H38.3l-7,32.3l9,2c1-1.1,2.2-2,3.5-2.7c1.1-0.6,2.3-0.9,3.6-0.9
	c2.2,0,4.4,0.9,5.8,2.6c1.6,1.8,2.5,4.2,2.4,6.6c0.1,2.5-0.8,4.9-2.5,6.8c-1.6,1.7-3.9,2.7-6.3,2.6c-1.7,0-3.4-0.5-4.8-1.4
	c-1.5-1-2.8-2.5-3.5-4.1H26.7c1.8,9.4,10.2,16.2,19.8,15.9c5.3,0.1,10.4-2,14.1-5.8c0.4-0.5,0.9-0.9,1.3-1.4
	C60.6,58,60,55.7,60.1,53.3z"/>
</svg>
