<?xml version="1.0" encoding="utf-8"?>
<!-- Generator: Adobe Illustrator 21.0.0, SVG Export Plug-In . SVG Version: 6.00 Build 0)  -->
<svg version="1.1" id="Layer_1" xmlns="http://www.w3.org/2000/svg" xmlns:xlink="http://www.w3.org/1999/xlink" x="0px" y="0px"
	 viewBox="0 0 171 75" style="enable-background:new 0 0 171 75;" xml:space="preserve">
<style type="text/css">
	.st0{fill:url(#SVGID_1_);}
	.st1{fill:url(#SVGID_2_);}
	.st2{fill:url(#SVGID_3_);}
	.st3{fill:url(#SVGID_4_);}
	.st4{fill:url(#SVGID_5_);}
	.st5{fill:url(#SVGID_6_);}
</style>
<g>
	<linearGradient id="SVGID_1_" gradientUnits="userSpaceOnUse" x1="20.9844" y1="65.873" x2="20.9844" y2="7.6631">
		<stop  offset="0" style="stop-color:#0D1244"/>
		<stop  offset="1" style="stop-color:#A7CF13"/>
	</linearGradient>
	<path class="st0" d="M25.2,51.6l0.6-1.4h6.8v-8.8l-2.8-0.9l2.8-12.4V7.7H15.9L9.5,18.1h12v47.8h11v-2.3
		C28.5,60.9,25.6,56.5,25.2,51.6z"/>
	<g>
		<linearGradient id="SVGID_2_" gradientUnits="userSpaceOnUse" x1="73.1081" y1="65.873" x2="73.1081" y2="40.9033">
			<stop  offset="0" style="stop-color:#0D1244"/>
			<stop  offset="1" style="stop-color:#A7CF13"/>
		</linearGradient>
		<path class="st1" d="M85.5,41.5v23.7h-3v-4.1c-1.3,1.6-2.7,2.7-4.3,3.5c-1.6,0.8-3.3,1.2-5.2,1.2c-3.4,0-6.2-1.2-8.6-3.7
			c-2.4-2.4-3.6-5.4-3.6-8.9c0-3.4,1.2-6.3,3.6-8.8c2.4-2.4,5.3-3.6,8.7-3.6c1.9,0,3.7,0.4,5.3,1.2c1.6,0.8,3,2.1,4.2,3.7v-4.4H85.5
			z M73.3,43.8c-1.7,0-3.3,0.4-4.7,1.3c-1.4,0.8-2.6,2-3.4,3.5c-0.9,1.5-1.3,3.1-1.3,4.8c0,1.7,0.4,3.3,1.3,4.8
			c0.9,1.5,2,2.7,3.5,3.6s3,1.3,4.7,1.3c1.7,0,3.3-0.4,4.8-1.3c1.5-0.8,2.6-2,3.5-3.4c0.8-1.4,1.2-3.1,1.2-4.9c0-2.7-0.9-5-2.7-6.9
			C78.1,44.8,75.9,43.8,73.3,43.8z"/>
		<linearGradient id="SVGID_3_" gradientUnits="userSpaceOnUse" x1="102.7057" y1="65.2623" x2="102.7057" y2="32.1066">
			<stop  offset="0" style="stop-color:#0D1244"/>
			<stop  offset="1" style="stop-color:#A7CF13"/>
		</linearGradient>
		<path class="st2" d="M92.3,41.5h3.1v4.3c1.2-1.6,2.6-2.8,4.1-3.7c1.5-0.8,3.1-1.2,4.8-1.2c1.8,0,3.4,0.4,4.7,1.4
			c1.4,0.9,2.4,2.1,3,3.6c0.7,1.5,1,3.9,1,7.1v12.2H110V53.9c0-2.7-0.1-4.6-0.3-5.5c-0.4-1.6-1-2.8-2-3.5c-1-0.8-2.3-1.2-3.9-1.2
			c-1.8,0-3.5,0.6-5,1.8c-1.5,1.2-2.4,2.7-2.9,4.5c-0.3,1.2-0.4,3.3-0.4,6.5v8.7h-3.1V41.5z M109.1,32.7l1.5,2.1
			c-1,0.8-1.9,1.3-2.7,1.5c-0.7,0.3-1.5,0.4-2.3,0.4c-1,0-2.1-0.3-3.2-0.8c-0.9-0.5-1.5-0.7-1.8-0.8c-0.4-0.1-0.7-0.2-1.1-0.2
			c-0.5,0-1,0.1-1.5,0.3c-0.5,0.2-1.1,0.6-2,1.2l-1.4-2.2c1.3-1.4,3-2.1,4.9-2.1c0.9,0,2,0.3,3.3,0.9c1.2,0.6,2.2,0.9,2.9,0.9
			C106.6,33.9,107.7,33.5,109.1,32.7z"/>
		<linearGradient id="SVGID_4_" gradientUnits="userSpaceOnUse" x1="130.8434" y1="65.873" x2="130.8434" y2="40.9033">
			<stop  offset="0" style="stop-color:#0D1244"/>
			<stop  offset="1" style="stop-color:#A7CF13"/>
		</linearGradient>
		<path class="st3" d="M130.9,40.9c3.7,0,6.7,1.3,9.1,4c2.2,2.4,3.3,5.3,3.3,8.6c0,3.3-1.2,6.2-3.5,8.7c-2.3,2.5-5.3,3.7-8.9,3.7
			c-3.6,0-6.6-1.2-8.9-3.7c-2.3-2.5-3.5-5.4-3.5-8.7c0-3.3,1.1-6.1,3.3-8.6C124.1,42.2,127.2,40.9,130.9,40.9z M130.8,43.9
			c-2.5,0-4.7,0.9-6.5,2.8s-2.7,4.1-2.7,6.8c0,1.7,0.4,3.3,1.2,4.8c0.8,1.5,2,2.6,3.4,3.4c1.4,0.8,3,1.2,4.7,1.2
			c1.7,0,3.2-0.4,4.7-1.2c1.4-0.8,2.5-2,3.4-3.4c0.8-1.5,1.2-3.1,1.2-4.8c0-2.7-0.9-4.9-2.7-6.8S133.4,43.9,130.8,43.9z"/>
		<linearGradient id="SVGID_5_" gradientUnits="userSpaceOnUse" x1="153.7392" y1="65.873" x2="153.7392" y2="40.9033">
			<stop  offset="0" style="stop-color:#0D1244"/>
			<stop  offset="1" style="stop-color:#A7CF13"/>
		</linearGradient>
		<path class="st4" d="M160.8,44.1l-2,2c-1.6-1.6-3.2-2.4-4.8-2.4c-1,0-1.8,0.3-2.6,1c-0.7,0.7-1.1,1.4-1.1,2.3
			c0,0.8,0.3,1.5,0.9,2.2c0.6,0.7,1.8,1.5,3.7,2.5c2.3,1.2,3.8,2.3,4.6,3.4c0.8,1.1,1.2,2.4,1.2,3.7c0,1.9-0.7,3.6-2.1,5
			c-1.4,1.4-3.1,2-5.1,2c-1.4,0-2.7-0.3-3.9-0.9c-1.2-0.6-2.3-1.4-3.1-2.5l1.9-2.2c1.6,1.8,3.2,2.6,5,2.6c1.2,0,2.3-0.4,3.1-1.2
			c0.9-0.8,1.3-1.7,1.3-2.8c0-0.9-0.3-1.7-0.9-2.3c-0.6-0.7-1.9-1.5-3.9-2.5c-2.1-1.1-3.6-2.2-4.4-3.3c-0.8-1.1-1.2-2.3-1.2-3.7
			c0-1.8,0.6-3.3,1.8-4.5c1.2-1.2,2.8-1.8,4.7-1.8C156.4,40.9,158.6,42,160.8,44.1z"/>
	</g>
	<g>
		<linearGradient id="SVGID_6_" gradientUnits="userSpaceOnUse" x1="45.9301" y1="67.3369" x2="45.9301" y2="7.6631">
			<stop  offset="0" style="stop-color:#0D1244"/>
			<stop  offset="1" style="stop-color:#A7CF13"/>
		</linearGradient>
		<path class="st5" d="M59.7,53.3c0-3.7,1.3-6.9,3.9-9.5c0.6-0.6,1.2-1.1,1.9-1.6c-0.7-3.5-2.3-6.4-4.7-8.9
			c-3.5-3.6-7.9-5.4-13.2-5.4c-0.6,0-1.2,0-1.8,0.1c-0.6,0.1-1.3,0.2-1.9,0.4l2.4-10.6h19V7.7H38l-7,32.3l9,2
			c1.1-1.2,2.3-2.1,3.5-2.7c1.2-0.6,2.4-0.9,3.6-0.9c2.3,0,4.2,0.9,5.8,2.6c1.6,1.7,2.4,3.9,2.4,6.6c0,2.8-0.9,5-2.6,6.8
			S48.8,57,46.4,57c-1.8,0-3.4-0.5-4.8-1.4c-1.5-0.9-2.6-2.3-3.5-4.1H26.3c1.1,4.9,3.4,8.8,7,11.6c3.6,2.8,7.8,4.2,12.8,4.2
			c5.5,0,10.2-1.9,14.1-5.8c0.4-0.4,0.9-0.9,1.3-1.4C60.3,58.1,59.7,55.8,59.7,53.3z"/>
	</g>
</g>
<title>15</title>
</svg>
